<svg xmlns="http://www.w3.org/2000/svg" xmlns:xlink="http://www.w3.org/1999/xlink" width="5000" zoomAndPan="magnify" viewBox="0 0 3750 1499.999933" height="2000" preserveAspectRatio="xMidYMid meet" version="1.2"><defs><clipPath id="624996a5b8"><path d="M 773.339844 242.949219 L 1057.90625 242.949219 L 1057.90625 527.515625 L 773.339844 527.515625 Z M 773.339844 242.949219 "/></clipPath><clipPath id="422d9ee1d2"><path d="M 915.625 242.949219 L 956.460938 286.644531 L 1016.230469 284.625 L 1014.210938 344.398438 L 1057.90625 385.234375 L 1014.210938 426.070312 L 1016.230469 485.84375 L 956.460938 483.824219 L 915.625 527.515625 L 874.785156 483.824219 L 815.015625 485.84375 L 817.035156 426.070312 L 773.339844 385.234375 L 817.035156 344.398438 L 815.015625 284.625 L 874.785156 286.644531 Z M 915.625 242.949219 "/></clipPath><clipPath id="b5f2281ce4"><path d="M 712.765625 247.242188 L 997.332031 247.242188 L 997.332031 531.804688 L 712.765625 531.804688 Z M 712.765625 247.242188 "/></clipPath><clipPath id="8f0ee6afaa"><path d="M 855.050781 247.242188 L 895.886719 290.933594 L 955.65625 288.914062 L 953.636719 348.6875 L 997.332031 389.523438 L 953.636719 430.359375 L 955.65625 490.132812 L 895.886719 488.113281 L 855.050781 531.804688 L 814.210938 488.113281 L 754.441406 490.132812 L 756.460938 430.359375 L 712.765625 389.523438 L 756.460938 348.6875 L 754.441406 288.914062 L 814.210938 290.933594 Z M 855.050781 247.242188 "/></clipPath></defs><g id="086607301c"><g style="fill:#1f009d;fill-opacity:1;"><g transform="translate(54.579933, 1131.999297)"><path style="stroke:none" d="M 343.8125 15.671875 C 296.4375 15.671875 246.625 11.140625 194.375 2.078125 C 142.125 -6.972656 88.128906 -20.898438 32.390625 -39.703125 L 39.703125 -144.21875 C 105.191406 -96.144531 165.628906 -61.484375 221.015625 -40.234375 C 276.398438 -18.984375 324.992188 -8.359375 366.796875 -8.359375 C 405.816406 -8.359375 439.082031 -16.367188 466.59375 -32.390625 C 494.113281 -48.421875 513.445312 -69.320312 524.59375 -95.09375 C 535.738281 -120.875 536.085938 -148.742188 525.640625 -178.703125 C 515.890625 -205.867188 497.078125 -230.078125 469.203125 -251.328125 C 441.335938 -272.578125 408.59375 -292.429688 370.96875 -310.890625 C 333.351562 -329.347656 294.515625 -347.457031 254.453125 -365.21875 C 214.398438 -382.988281 176.957031 -401.628906 142.125 -421.140625 C 107.289062 -440.648438 78.898438 -462.070312 56.953125 -485.40625 C 35.003906 -508.75 23.679688 -535.050781 22.984375 -564.3125 C 22.296875 -606.800781 36.925781 -641.804688 66.875 -669.328125 C 96.832031 -696.847656 137.414062 -717.398438 188.625 -730.984375 C 239.832031 -744.566406 296.085938 -751.359375 357.390625 -751.359375 C 446.566406 -751.359375 540.617188 -737.425781 639.546875 -709.5625 L 631.1875 -605.0625 C 567.789062 -647.5625 508.570312 -678.738281 453.53125 -698.59375 C 398.5 -718.445312 351.472656 -728.375 312.453125 -728.375 C 282.503906 -728.375 254.988281 -725.238281 229.90625 -718.96875 C 204.820312 -712.695312 184.960938 -702.421875 170.328125 -688.140625 C 155.703125 -673.859375 148.738281 -654.523438 149.4375 -630.140625 C 150.132812 -611.328125 160.0625 -593.5625 179.21875 -576.84375 C 198.375 -560.125 223.453125 -543.578125 254.453125 -527.203125 C 285.460938 -510.835938 319.425781 -494.117188 356.34375 -477.046875 C 393.269531 -459.984375 430.191406 -442.046875 467.109375 -423.234375 C 504.035156 -404.421875 538.175781 -384.039062 569.53125 -362.09375 C 600.882812 -340.15625 626.140625 -316.117188 645.296875 -289.984375 C 664.453125 -263.859375 674.378906 -235.125 675.078125 -203.78125 C 676.472656 -157.101562 663.410156 -117.390625 635.890625 -84.640625 C 608.367188 -51.898438 569.523438 -26.992188 519.359375 -9.921875 C 469.203125 7.140625 410.6875 15.671875 343.8125 15.671875 Z M 343.8125 15.671875 "/></g></g><g style="fill:#1f009d;fill-opacity:1;"><g transform="translate(778.776417, 1131.999297)"><path style="stroke:none" d="M 135.859375 -647.90625 C 112.171875 -647.90625 91.960938 -656.265625 75.234375 -672.984375 C 58.515625 -689.710938 50.15625 -709.914062 50.15625 -733.59375 C 50.15625 -757.976562 58.515625 -778.359375 75.234375 -794.734375 C 91.960938 -811.109375 112.171875 -819.296875 135.859375 -819.296875 C 160.234375 -819.296875 180.609375 -811.109375 196.984375 -794.734375 C 213.359375 -778.359375 221.546875 -757.976562 221.546875 -733.59375 C 221.546875 -709.914062 213.359375 -689.710938 196.984375 -672.984375 C 180.609375 -656.265625 160.234375 -647.90625 135.859375 -647.90625 Z M 219.453125 0 L 52.25 0 L 52.25 -604.015625 L 219.453125 -604.015625 Z M 219.453125 0 "/></g></g><g style="fill:#1f009d;fill-opacity:1;"><g transform="translate(1051.525632, 1131.999297)"><path style="stroke:none" d="M 217.359375 0 L 50.15625 0 L 50.15625 -604.015625 L 217.359375 -604.015625 L 217.359375 -422.1875 L 219.453125 -422.1875 C 231.992188 -465.382812 249.757812 -501.785156 272.75 -531.390625 C 295.738281 -560.992188 321.335938 -583.457031 349.546875 -598.78125 C 377.765625 -614.113281 406.503906 -621.78125 435.765625 -621.78125 C 481.753906 -621.78125 518.851562 -605.582031 547.0625 -573.1875 C 575.28125 -540.789062 589.390625 -493.59375 589.390625 -431.59375 L 592.53125 -431.59375 C 610.632812 -495.6875 638.671875 -543.40625 676.640625 -574.75 C 714.609375 -606.101562 753.800781 -621.78125 794.21875 -621.78125 C 839.5 -621.78125 877.988281 -605.0625 909.6875 -571.625 C 941.382812 -538.1875 957.234375 -488.722656 957.234375 -423.234375 L 957.234375 0 L 790.03125 0 L 790.03125 -439.953125 C 790.03125 -479.660156 783.0625 -508.046875 769.125 -525.109375 C 755.195312 -542.179688 739.875 -550.71875 723.15625 -550.71875 C 695.28125 -550.71875 668.800781 -534.519531 643.71875 -502.125 C 618.644531 -469.726562 601.582031 -421.132812 592.53125 -356.34375 L 592.53125 0 L 425.328125 0 L 425.328125 -439.953125 C 425.328125 -481.753906 418.007812 -511.710938 403.375 -529.828125 C 388.75 -547.941406 372.378906 -557 354.265625 -557 C 324.304688 -557 296.265625 -538.707031 270.140625 -502.125 C 244.015625 -465.550781 226.421875 -413.476562 217.359375 -345.90625 Z M 217.359375 0 "/></g></g><g style="fill:#1f009d;fill-opacity:1;"><g transform="translate(2063.101434, 1131.999297)"><path style="stroke:none" d="M 217.359375 176.609375 L 50.15625 176.609375 L 50.15625 -604.015625 L 217.359375 -604.015625 L 217.359375 -539.234375 C 243.835938 -565.703125 273.273438 -585.898438 305.671875 -599.828125 C 338.066406 -613.765625 371.332031 -620.734375 405.46875 -620.734375 C 447.269531 -620.734375 486.976562 -610.109375 524.59375 -588.859375 C 562.21875 -567.617188 592.695312 -535.570312 616.03125 -492.71875 C 639.375 -449.875 651.046875 -396.054688 651.046875 -331.265625 C 651.046875 -281.109375 642.859375 -234.953125 626.484375 -192.796875 C 610.109375 -150.648438 587.640625 -114.078125 559.078125 -83.078125 C 530.515625 -52.078125 497.421875 -28.039062 459.796875 -10.96875 C 422.179688 6.09375 382.125 14.625 339.625 14.625 C 320.125 14.625 299.921875 12.359375 279.015625 7.828125 C 258.117188 3.304688 237.566406 -3.484375 217.359375 -12.546875 Z M 298.875 -11.5 C 330.226562 -11.5 357.921875 -19.859375 381.953125 -36.578125 C 405.984375 -53.296875 426.359375 -76.285156 443.078125 -105.546875 C 459.804688 -134.804688 472.347656 -167.722656 480.703125 -204.296875 C 489.066406 -240.867188 493.25 -279.015625 493.25 -318.734375 C 493.25 -368.191406 487.148438 -412.425781 474.953125 -451.4375 C 462.765625 -490.457031 445.523438 -521.460938 423.234375 -544.453125 C 400.941406 -567.441406 374.816406 -578.9375 344.859375 -578.9375 C 299.566406 -578.9375 257.066406 -558.035156 217.359375 -516.234375 L 217.359375 -30.3125 C 245.921875 -17.769531 273.09375 -11.5 298.875 -11.5 Z M 298.875 -11.5 "/></g></g><g style="fill:#1f009d;fill-opacity:1;"><g transform="translate(2744.452434, 1131.999297)"><path style="stroke:none" d="M 224.671875 0 L 57.46875 0 L 57.46875 -733.59375 L 224.671875 -733.59375 Z M 224.671875 0 "/></g></g><g style="fill:#1f009d;fill-opacity:1;"><g transform="translate(3021.381741, 1131.999297)"><path style="stroke:none" d="M 215.265625 254.984375 C 158.140625 254.984375 98.578125 246.625 36.578125 229.90625 L 71.0625 125.40625 C 114.257812 161.632812 153.617188 187.929688 189.140625 204.296875 C 224.671875 220.671875 256.375 228.859375 284.25 228.859375 C 321.863281 228.859375 354.429688 220.320312 381.953125 203.25 C 409.472656 186.1875 430.722656 162.847656 445.703125 133.234375 C 460.679688 103.628906 468.171875 69.664062 468.171875 31.34375 L 468.171875 -150.484375 L 466.078125 -150.484375 C 452.835938 -113.554688 434.375 -82.550781 410.6875 -57.46875 C 387 -32.394531 361.222656 -13.585938 333.359375 -1.046875 C 305.492188 11.492188 279.019531 17.765625 253.9375 17.765625 C 217.707031 17.765625 183.742188 6.445312 152.046875 -16.1875 C 120.347656 -38.832031 94.742188 -71.226562 75.234375 -113.375 C 55.734375 -155.53125 45.984375 -205.867188 45.984375 -264.390625 L 45.984375 -604.015625 L 213.1875 -604.015625 L 213.1875 -219.453125 C 213.1875 -156.753906 222.9375 -110.078125 242.4375 -79.421875 C 261.945312 -48.765625 285.285156 -33.4375 312.453125 -33.4375 C 330.566406 -33.4375 349.550781 -39.707031 369.40625 -52.25 C 389.269531 -64.789062 408.082031 -83.597656 425.84375 -108.671875 C 443.601562 -133.753906 457.710938 -164.410156 468.171875 -200.640625 L 468.171875 -604.015625 L 635.375 -604.015625 L 635.375 -111.8125 C 635.375 -56.78125 624.921875 -6.796875 604.015625 38.140625 C 583.117188 83.078125 553.6875 121.742188 515.71875 154.140625 C 477.75 186.535156 433.332031 211.441406 382.46875 228.859375 C 331.613281 246.273438 275.878906 254.984375 215.265625 254.984375 Z M 215.265625 254.984375 "/></g></g><g clip-rule="nonzero" clip-path="url(#624996a5b8)"><g clip-rule="nonzero" clip-path="url(#422d9ee1d2)"><path style=" stroke:none;fill-rule:nonzero;fill:#3222b8;fill-opacity:1;" d="M 773.339844 242.949219 L 1057.90625 242.949219 L 1057.90625 527.515625 L 773.339844 527.515625 Z M 773.339844 242.949219 "/></g></g><g clip-rule="nonzero" clip-path="url(#b5f2281ce4)"><g clip-rule="nonzero" clip-path="url(#8f0ee6afaa)"><path style=" stroke:none;fill-rule:nonzero;fill:#fafafa;fill-opacity:1;" d="M 712.765625 247.242188 L 997.332031 247.242188 L 997.332031 531.804688 L 712.765625 531.804688 Z M 712.765625 247.242188 "/></g></g><g style="fill:#fafafa;fill-opacity:1;"><g transform="translate(114.658908, 1131.999297)"><path style="stroke:none" d="M 296.78125 17.765625 C 254.28125 17.765625 211.257812 13.929688 167.71875 6.265625 C 124.175781 -1.390625 82.203125 -11.140625 41.796875 -22.984375 L 67.921875 -127.484375 C 108.328125 -95.441406 146.117188 -71.0625 181.296875 -54.34375 C 216.484375 -37.625 248.359375 -26.300781 276.921875 -20.375 C 305.492188 -14.457031 329.878906 -11.5 350.078125 -11.5 C 382.828125 -11.5 408.429688 -17.242188 426.890625 -28.734375 C 445.347656 -40.234375 454.925781 -54.34375 455.625 -71.0625 C 455.625 -95.445312 445.347656 -118.4375 424.796875 -140.03125 C 404.242188 -161.625 377.941406 -183.046875 345.890625 -204.296875 C 313.847656 -225.546875 279.710938 -246.617188 243.484375 -267.515625 C 207.253906 -288.421875 173.113281 -309.84375 141.0625 -331.78125 C 109.019531 -353.726562 82.722656 -376.71875 62.171875 -400.75 C 41.617188 -424.789062 31.34375 -450.398438 31.34375 -477.578125 C 31.34375 -502.648438 40.222656 -524.242188 57.984375 -542.359375 C 75.753906 -560.472656 99.617188 -575.101562 129.578125 -586.25 C 159.535156 -597.394531 193.5 -605.753906 231.46875 -611.328125 C 269.4375 -616.898438 308.273438 -619.6875 347.984375 -619.6875 C 382.816406 -619.6875 418.171875 -617.769531 454.046875 -613.9375 C 489.929688 -610.113281 524.59375 -604.367188 558.03125 -596.703125 L 541.3125 -492.203125 C 516.238281 -511.015625 486.804688 -528.253906 453.015625 -543.921875 C 419.222656 -559.597656 385.257812 -571.960938 351.125 -581.015625 C 316.988281 -590.078125 286.679688 -594.609375 260.203125 -594.609375 C 231.640625 -594.609375 208.128906 -589.554688 189.671875 -579.453125 C 171.210938 -569.359375 161.984375 -553.859375 161.984375 -532.953125 C 161.984375 -517.628906 171.910156 -501.78125 191.765625 -485.40625 C 211.617188 -469.039062 237.394531 -451.800781 269.09375 -433.6875 C 300.789062 -415.570312 334.226562 -396.410156 369.40625 -376.203125 C 404.59375 -356.003906 438.035156 -334.234375 469.734375 -310.890625 C 501.429688 -287.554688 527.207031 -262.828125 547.0625 -236.703125 C 566.914062 -210.578125 576.84375 -182.535156 576.84375 -152.578125 C 576.144531 -121.222656 567.785156 -94.742188 551.765625 -73.140625 C 535.742188 -51.546875 514.320312 -33.957031 487.5 -20.375 C 460.675781 -6.789062 430.890625 2.957031 398.140625 8.875 C 365.398438 14.800781 331.613281 17.765625 296.78125 17.765625 Z M 296.78125 17.765625 "/></g></g><g style="fill:#fafafa;fill-opacity:1;"><g transform="translate(718.678534, 1131.999297)"><path style="stroke:none" d="M 135.859375 -647.90625 C 112.171875 -647.90625 91.960938 -656.265625 75.234375 -672.984375 C 58.515625 -689.710938 50.15625 -709.914062 50.15625 -733.59375 C 50.15625 -757.976562 58.515625 -778.359375 75.234375 -794.734375 C 91.960938 -811.109375 112.171875 -819.296875 135.859375 -819.296875 C 160.234375 -819.296875 180.609375 -811.109375 196.984375 -794.734375 C 213.359375 -778.359375 221.546875 -757.976562 221.546875 -733.59375 C 221.546875 -709.914062 213.359375 -689.710938 196.984375 -672.984375 C 180.609375 -656.265625 160.234375 -647.90625 135.859375 -647.90625 Z M 219.453125 0 L 52.25 0 L 52.25 -604.015625 L 219.453125 -604.015625 Z M 219.453125 0 "/></g></g><g style="fill:#fafafa;fill-opacity:1;"><g transform="translate(991.42775, 1131.999297)"><path style="stroke:none" d="M 217.359375 0 L 50.15625 0 L 50.15625 -604.015625 L 217.359375 -604.015625 L 217.359375 -422.1875 L 219.453125 -422.1875 C 231.992188 -465.382812 249.757812 -501.785156 272.75 -531.390625 C 295.738281 -560.992188 321.335938 -583.457031 349.546875 -598.78125 C 377.765625 -614.113281 406.503906 -621.78125 435.765625 -621.78125 C 481.753906 -621.78125 518.851562 -605.582031 547.0625 -573.1875 C 575.28125 -540.789062 589.390625 -493.59375 589.390625 -431.59375 L 592.53125 -431.59375 C 610.632812 -495.6875 638.671875 -543.40625 676.640625 -574.75 C 714.609375 -606.101562 753.800781 -621.78125 794.21875 -621.78125 C 839.5 -621.78125 877.988281 -605.0625 909.6875 -571.625 C 941.382812 -538.1875 957.234375 -488.722656 957.234375 -423.234375 L 957.234375 0 L 790.03125 0 L 790.03125 -439.953125 C 790.03125 -479.660156 783.0625 -508.046875 769.125 -525.109375 C 755.195312 -542.179688 739.875 -550.71875 723.15625 -550.71875 C 695.28125 -550.71875 668.800781 -534.519531 643.71875 -502.125 C 618.644531 -469.726562 601.582031 -421.132812 592.53125 -356.34375 L 592.53125 0 L 425.328125 0 L 425.328125 -439.953125 C 425.328125 -481.753906 418.007812 -511.710938 403.375 -529.828125 C 388.75 -547.941406 372.378906 -557 354.265625 -557 C 324.304688 -557 296.265625 -538.707031 270.140625 -502.125 C 244.015625 -465.550781 226.421875 -413.476562 217.359375 -345.90625 Z M 217.359375 0 "/></g></g><g style="fill:#fafafa;fill-opacity:1;"><g transform="translate(2003.003666, 1131.999297)"><path style="stroke:none" d="M 217.359375 176.609375 L 50.15625 176.609375 L 50.15625 -604.015625 L 217.359375 -604.015625 L 217.359375 -539.234375 C 243.835938 -565.703125 273.273438 -585.898438 305.671875 -599.828125 C 338.066406 -613.765625 371.332031 -620.734375 405.46875 -620.734375 C 447.269531 -620.734375 486.976562 -610.109375 524.59375 -588.859375 C 562.21875 -567.617188 592.695312 -535.570312 616.03125 -492.71875 C 639.375 -449.875 651.046875 -396.054688 651.046875 -331.265625 C 651.046875 -281.109375 642.859375 -234.953125 626.484375 -192.796875 C 610.109375 -150.648438 587.640625 -114.078125 559.078125 -83.078125 C 530.515625 -52.078125 497.421875 -28.039062 459.796875 -10.96875 C 422.179688 6.09375 382.125 14.625 339.625 14.625 C 320.125 14.625 299.921875 12.359375 279.015625 7.828125 C 258.117188 3.304688 237.566406 -3.484375 217.359375 -12.546875 Z M 298.875 -11.5 C 330.226562 -11.5 357.921875 -19.859375 381.953125 -36.578125 C 405.984375 -53.296875 426.359375 -76.285156 443.078125 -105.546875 C 459.804688 -134.804688 472.347656 -167.722656 480.703125 -204.296875 C 489.066406 -240.867188 493.25 -279.015625 493.25 -318.734375 C 493.25 -368.191406 487.148438 -412.425781 474.953125 -451.4375 C 462.765625 -490.457031 445.523438 -521.460938 423.234375 -544.453125 C 400.941406 -567.441406 374.816406 -578.9375 344.859375 -578.9375 C 299.566406 -578.9375 257.066406 -558.035156 217.359375 -516.234375 L 217.359375 -30.3125 C 245.921875 -17.769531 273.09375 -11.5 298.875 -11.5 Z M 298.875 -11.5 "/></g></g><g style="fill:#fafafa;fill-opacity:1;"><g transform="translate(2684.354428, 1131.999297)"><path style="stroke:none" d="M 224.671875 0 L 57.46875 0 L 57.46875 -733.59375 L 224.671875 -733.59375 Z M 224.671875 0 "/></g></g><g style="fill:#fafafa;fill-opacity:1;"><g transform="translate(2961.283973, 1131.999297)"><path style="stroke:none" d="M 215.265625 254.984375 C 158.140625 254.984375 98.578125 246.625 36.578125 229.90625 L 71.0625 125.40625 C 114.257812 161.632812 153.617188 187.929688 189.140625 204.296875 C 224.671875 220.671875 256.375 228.859375 284.25 228.859375 C 321.863281 228.859375 354.429688 220.320312 381.953125 203.25 C 409.472656 186.1875 430.722656 162.847656 445.703125 133.234375 C 460.679688 103.628906 468.171875 69.664062 468.171875 31.34375 L 468.171875 -150.484375 L 466.078125 -150.484375 C 452.835938 -113.554688 434.375 -82.550781 410.6875 -57.46875 C 387 -32.394531 361.222656 -13.585938 333.359375 -1.046875 C 305.492188 11.492188 279.019531 17.765625 253.9375 17.765625 C 217.707031 17.765625 183.742188 6.445312 152.046875 -16.1875 C 120.347656 -38.832031 94.742188 -71.226562 75.234375 -113.375 C 55.734375 -155.53125 45.984375 -205.867188 45.984375 -264.390625 L 45.984375 -604.015625 L 213.1875 -604.015625 L 213.1875 -219.453125 C 213.1875 -156.753906 222.9375 -110.078125 242.4375 -79.421875 C 261.945312 -48.765625 285.285156 -33.4375 312.453125 -33.4375 C 330.566406 -33.4375 349.550781 -39.707031 369.40625 -52.25 C 389.269531 -64.789062 408.082031 -83.597656 425.84375 -108.671875 C 443.601562 -133.753906 457.710938 -164.410156 468.171875 -200.640625 L 468.171875 -604.015625 L 635.375 -604.015625 L 635.375 -111.8125 C 635.375 -56.78125 624.921875 -6.796875 604.015625 38.140625 C 583.117188 83.078125 553.6875 121.742188 515.71875 154.140625 C 477.75 186.535156 433.332031 211.441406 382.46875 228.859375 C 331.613281 246.273438 275.878906 254.984375 215.265625 254.984375 Z M 215.265625 254.984375 "/></g></g></g></svg>