<svg xmlns="http://www.w3.org/2000/svg" xmlns:xlink="http://www.w3.org/1999/xlink" width="5000" zoomAndPan="magnify" viewBox="0 0 3750 3749.999967" height="5000" preserveAspectRatio="xMidYMid meet" version="1.2"><defs><clipPath id="41802658ad"><path d="M 316.632812 316.632812 L 3433.367188 316.632812 L 3433.367188 3433.367188 L 316.632812 3433.367188 Z M 316.632812 316.632812 "/></clipPath><clipPath id="5a1db29cf2"><path d="M 1875 316.632812 L 2322.269531 795.191406 L 2976.933594 773.066406 L 2954.808594 1427.730469 L 3433.367188 1875 L 2954.808594 2322.269531 L 2976.933594 2976.933594 L 2322.269531 2954.808594 L 1875 3433.371094 L 1427.730469 2954.808594 L 773.066406 2976.933594 L 795.191406 2322.269531 L 316.632812 1875 L 795.191406 1427.730469 L 773.066406 773.066406 L 1427.730469 795.191406 Z M 1875 316.632812 "/></clipPath></defs><g id="98480488dd"><g clip-rule="nonzero" clip-path="url(#41802658ad)"><g clip-rule="nonzero" clip-path="url(#5a1db29cf2)"><path style=" stroke:none;fill-rule:nonzero;fill:#3a6ae6;fill-opacity:1;" d="M 316.632812 316.632812 L 3433.367188 316.632812 L 3433.367188 3433.367188 L 316.632812 3433.367188 Z M 316.632812 316.632812 "/></g></g><g style="fill:#fafafa;fill-opacity:1;"><g transform="translate(1375.639987, 2414.529238)"><path style="stroke:none" d="M 526.3125 24 C 453.789062 24 377.535156 17.066406 297.546875 3.203125 C 217.566406 -10.660156 134.914062 -31.992188 49.59375 -60.796875 L 60.796875 -220.765625 C 161.046875 -147.171875 253.5625 -94.109375 338.34375 -61.578125 C 423.132812 -29.054688 497.523438 -12.796875 561.515625 -12.796875 C 621.234375 -12.796875 672.15625 -25.0625 714.28125 -49.59375 C 756.414062 -74.125 786.015625 -106.117188 803.078125 -145.578125 C 820.140625 -185.035156 820.671875 -227.695312 804.671875 -273.5625 C 789.742188 -315.15625 760.945312 -352.210938 718.28125 -384.734375 C 675.625 -417.265625 625.5 -447.660156 567.90625 -475.921875 C 510.320312 -504.179688 450.863281 -531.910156 389.53125 -559.109375 C 328.207031 -586.304688 270.882812 -614.835938 217.5625 -644.703125 C 164.238281 -674.566406 120.78125 -707.359375 87.1875 -743.078125 C 53.59375 -778.804688 36.257812 -819.066406 35.1875 -863.859375 C 34.125 -928.921875 56.519531 -982.515625 102.375 -1024.640625 C 148.238281 -1066.765625 210.363281 -1098.222656 288.75 -1119.015625 C 367.144531 -1139.816406 453.265625 -1150.21875 547.109375 -1150.21875 C 683.617188 -1150.21875 827.597656 -1128.890625 979.046875 -1086.234375 L 966.25 -926.25 C 869.195312 -991.3125 778.539062 -1039.039062 694.28125 -1069.4375 C 610.03125 -1099.832031 538.046875 -1115.03125 478.328125 -1115.03125 C 432.460938 -1115.03125 390.332031 -1110.226562 351.9375 -1100.625 C 313.550781 -1091.03125 283.160156 -1075.300781 260.765625 -1053.4375 C 238.367188 -1031.570312 227.703125 -1001.976562 228.765625 -964.65625 C 229.828125 -935.851562 245.019531 -908.65625 274.34375 -883.0625 C 303.675781 -857.46875 342.070312 -832.140625 389.53125 -807.078125 C 437 -782.015625 488.992188 -756.414062 545.515625 -730.28125 C 602.035156 -704.15625 658.554688 -676.691406 715.078125 -647.890625 C 771.609375 -619.097656 823.867188 -587.90625 871.859375 -554.3125 C 919.859375 -520.71875 958.519531 -483.921875 987.84375 -443.921875 C 1017.175781 -403.929688 1032.375 -359.941406 1033.4375 -311.953125 C 1035.570312 -240.492188 1015.570312 -179.703125 973.4375 -129.578125 C 931.3125 -79.453125 871.851562 -41.320312 795.0625 -15.1875 C 718.28125 10.9375 628.695312 24 526.3125 24 Z M 526.3125 24 "/></g></g></g></svg>